<?xml version="1.0" encoding="utf-8"?>
<!-- Generator: Adobe Illustrator 24.0.2, SVG Export Plug-In . SVG Version: 6.00 Build 0)  -->
<svg version="1.1" id="Capa_1" xmlns="http://www.w3.org/2000/svg" xmlns:xlink="http://www.w3.org/1999/xlink" x="0px" y="0px"
	 viewBox="0 0 1366 768" style="enable-background:new 0 0 1366 768;" xml:space="preserve">
<style type="text/css">
	.st0{fill:none;}
	.st1{fill:#0000CE;stroke:#0000FF;stroke-width:0.75;stroke-miterlimit:10;}
	.st2{font-family:'BookAntiqua';}
	.st3{font-size:310px;}
	.st4{stroke:#000000;stroke-width:0.75;stroke-miterlimit:10;}
	.st5{fill:#3A3A3A;}
</style>
<rect x="107" y="332" class="st0" width="1202" height="338"/>
<text transform="matrix(1 0 0 1 107 557.6792)"><tspan x="0" y="0" class="st1 st2 st3">Se</tspan><tspan x="311.21" y="0" class="st4 st2 st3">Envia</tspan></text>
<rect x="1002" y="409" class="st0" width="69" height="25"/>
<rect x="874" y="429" class="st0" width="1" height="4"/>
<g>
	<g>
		<path d="M172.31,285.93c19.21-15.34,43.51-22.4,67.62-25.01c12.75-1.38,25.48-1.33,38.29-1.25c7.03,0.04,14.07-0.12,21.03-1.2
			c6.52-1.02,12.84-2.97,18.95-5.45c12.17-4.94,23.46-11.72,35.33-17.3c12.89-6.07,26.29-10.96,39.81-15.42
			c13.39-4.41,26.87-8.66,40.44-12.5c13.9-3.94,28.02-6.96,42.51-7.27c7.11-0.15,14.25,0.08,21.34-0.74
			c5.97-0.69,11.73-2.2,17.25-4.57c10.74-4.6,20.11-12.04,28.02-20.56c2.04-2.2,3.98-4.48,5.85-6.82c1.19-1.49-0.92-3.63-2.12-2.12
			c-7.44,9.32-16.21,17.75-26.65,23.64c-5.13,2.89-10.62,5.11-16.36,6.41c-6.94,1.57-14.08,1.64-21.16,1.69
			c-7.02,0.05-13.98,0.27-20.95,1.2c-7.15,0.96-14.21,2.46-21.19,4.25c-13.69,3.52-27.18,7.89-40.64,12.18
			c-13.25,4.23-26.41,8.77-39.21,14.24c-12.46,5.33-24.16,12.13-36.42,17.87c-5.99,2.8-12.15,5.27-18.56,6.92
			c-6.9,1.78-13.98,2.39-21.08,2.52c-13.1,0.24-26.14-0.31-39.22,0.78c-23.72,1.98-47.8,7.71-67.81,21.1
			c-2.47,1.66-4.86,3.43-7.19,5.29C168.68,285.01,170.81,287.12,172.31,285.93L172.31,285.93z"/>
	</g>
</g>
<g>
	<g>
		<path d="M549.97,167.28c11.11-20.94,36.74-26.8,56.11-37.26c10.76-5.82,19.75-13.55,27.23-23.24c7.54-9.76,13.47-20.6,19.72-31.2
			c6.6-11.2,13.64-22.8,23.42-31.55c5.9-5.28,13.15-8.51,21.07-6.14c6.79,2.03,12.42,7.01,17.17,12.08
			c17.98,19.22,30.59,42.76,47.89,62.56c8.58,9.82,18.37,18.69,29.74,25.17c12.86,7.33,27.21,12.61,41.25,17.17
			c26.53,8.6,56.66,13.36,82.78,0.83c6.41-3.08,12.41-7.25,19.27-9.3c7.49-2.23,14.49-0.5,20.79,3.92
			c6.15,4.31,11.36,10.03,16.72,15.25c5.67,5.51,11.33,11.02,16.98,16.55c22.89,22.38,45.61,44.96,67.57,68.26
			c21.67,22.99,42.5,46.74,62.17,71.47c17.51,22.01,34.83,44.69,56.91,62.4c5.22,4.19,10.68,8.06,16.38,11.57
			c1.65,1.01,3.16-1.58,1.51-2.59c-24.8-15.26-43.94-37.52-61.96-60.01c-19.69-24.58-39.57-48.85-60.89-72.06
			c-21.93-23.87-44.75-46.92-67.85-69.66c-11.55-11.38-23.18-22.68-34.8-33.98c-9.23-8.96-19.57-17.88-33.34-14.29
			c-6.66,1.74-12.55,5.55-18.59,8.68c-6.63,3.43-13.71,5.81-21.06,7.14c-14.89,2.7-30.31,1.06-44.94-2.35
			c-14.96-3.48-29.57-8.78-43.66-14.86c-13.49-5.82-25.46-13.52-35.86-23.93c-18.93-18.95-31.97-42.72-48.96-63.26
			c-7.81-9.43-18.26-21.24-31.73-20.62c-12.78,0.59-22.2,12.64-29.1,22.14c-15.01,20.65-24.13,46.3-44.38,62.8
			c-18.09,14.74-42.86,18.43-60.26,34.15c-4.01,3.62-7.35,7.87-9.88,12.64C546.48,167.47,549.06,168.99,549.97,167.28L549.97,167.28
			z"/>
	</g>
</g>
<g>
	<g>
		<path d="M170.13,282.69c-7.04,4.29-14.07,8.58-21.11,12.87c-6.28,3.83-12.94,7.37-18.66,12.04c-2.88,2.35-5.42,5.13-7.18,8.42
			c-0.91,1.7,1.68,3.22,2.59,1.51c4.09-7.64,12.37-11.83,19.48-16.17c8.79-5.36,17.59-10.73,26.38-16.09
			C173.29,284.27,171.78,281.68,170.13,282.69L170.13,282.69z"/>
	</g>
</g>
<g>
	<g>
		<path d="M698.86,241.07c1.93,0,1.93-3,0-3C696.93,238.07,696.93,241.07,698.86,241.07L698.86,241.07z"/>
	</g>
</g>
<rect x="727.33" y="244.86" class="st0" width="370.7" height="250.83"/>
<path class="st5" d="M34,177"/>
</svg>
